<?xml version="1.0" standalone="no"?>
<!DOCTYPE svg PUBLIC "-//W3C//DTD SVG 20010904//EN"
 "http://www.w3.org/TR/2001/REC-SVG-20010904/DTD/svg10.dtd">
<svg version="1.0" xmlns="http://www.w3.org/2000/svg"
 width="470.000000pt" height="470.000000pt" viewBox="0 0 470.000000 470.000000"
 preserveAspectRatio="xMidYMid meet">
<metadata>
Created by potrace 1.11, written by Peter Selinger 2001-2013
</metadata>
<g transform="translate(0.000000,470.000000) scale(0.100000,-0.100000)"
fill="#000000" stroke="none">
<path d="M1750 4619 c-25 -5 -115 -13 -200 -18 -316 -19 -593 -105 -1010 -317
-193 -98 -383 -204 -377 -210 2 -3 25 0 50 6 95 21 247 40 402 49 199 12 429
22 424 17 -2 -2 -53 -24 -114 -50 -60 -26 -121 -55 -135 -64 l-25 -16 40 -8
c22 -4 61 -7 86 -7 25 -1 48 -4 51 -7 4 -3 -4 -29 -17 -57 -21 -48 -25 -52
-56 -52 -44 0 -54 -19 -11 -23 17 -2 32 -5 32 -6 0 -2 -7 -23 -16 -47 -9 -24
-24 -84 -34 -132 -14 -64 -25 -95 -43 -113 -35 -35 -57 -172 -33 -208 8 -14
25 -27 36 -31 14 -5 20 -15 20 -38 0 -18 9 -69 18 -113 17 -76 17 -83 2 -105
-24 -33 -504 -1239 -497 -1246 9 -8 303 42 492 83 130 29 285 68 395 101 12 3
15 -5 12 -43 -3 -25 1 -96 7 -158 14 -132 54 -261 112 -359 45 -76 144 -186
220 -244 27 -20 47 -43 45 -50 -12 -30 -210 -283 -216 -276 -4 4 -22 54 -39
111 -29 92 -44 116 -63 96 -3 -3 7 -46 23 -96 15 -50 24 -87 20 -82 -5 5 -55
61 -111 124 -56 63 -106 116 -111 118 -5 2 -12 -4 -15 -12 -4 -11 18 -43 68
-99 123 -138 131 -139 -122 21 -47 30 -67 38 -77 30 -7 -5 -11 -14 -8 -18 2
-4 96 -65 209 -136 l204 -128 82 -153 c45 -84 85 -155 89 -157 4 -3 13 -1 20
4 11 6 -5 43 -68 158 -44 83 -81 154 -81 158 0 5 189 263 236 322 1 2 39 -22
85 -52 86 -58 193 -105 307 -133 54 -14 116 -17 314 -18 l248 0 0 -277 c0
-153 -3 -278 -7 -279 -5 0 -127 -15 -273 -32 -228 -28 -265 -35 -268 -50 -4
-22 -6 -22 249 8 116 14 213 24 215 22 2 -1 -58 -41 -133 -87 -133 -83 -151
-99 -138 -119 5 -10 46 13 218 123 31 20 57 35 57 33 0 -3 -23 -33 -50 -67
-48 -61 -56 -80 -34 -87 6 -2 50 46 98 107 l88 110 199 0 c192 0 199 1 199 20
0 19 -7 20 -195 20 l-195 0 0 283 0 282 89 21 c49 12 128 41 177 63 125 59
324 180 429 261 50 39 142 109 205 157 348 262 600 492 659 603 35 66 42 138
15 161 -13 11 -26 7 -82 -20 -76 -37 -76 -38 33 50 97 78 230 210 250 249 13
25 13 29 0 40 -18 15 -84 8 -174 -20 -36 -11 -66 -18 -68 -16 -2 2 29 20 69
41 212 111 318 213 318 308 0 18 -2 36 -5 39 -15 15 -496 -82 -860 -174 -347
-87 -524 -125 -665 -144 -32 -4 -38 0 -67 41 l-32 45 52 69 c87 116 156 267
198 436 29 116 36 331 15 460 -82 495 -450 880 -948 990 -87 19 -438 29 -508
14z m426 -40 c491 -68 883 -439 984 -930 30 -145 25 -369 -13 -510 -139 -529
-595 -882 -1134 -878 -70 1 -138 4 -150 7 -21 6 -18 11 37 54 107 86 150 171
150 298 0 157 -77 323 -219 474 -36 38 -49 57 -36 53 11 -3 102 -20 203 -37
170 -30 184 -31 207 -16 26 17 41 58 51 146 11 96 12 95 -302 151 -148 27
-274 49 -281 49 -6 0 -24 -11 -40 -24 l-28 -23 -105 18 c-142 25 -150 27 -150
43 0 37 -41 51 -263 92 l-222 40 4 40 c4 44 48 205 60 217 4 4 22 4 39 1 28
-6 32 -11 32 -38 0 -18 12 -56 26 -84 59 -118 212 -144 304 -52 21 21 43 54
50 75 l12 37 52 -6 c28 -4 68 -10 89 -13 28 -4 37 -2 37 9 0 12 -63 24 -302
57 -167 23 -309 44 -316 46 -9 3 -2 25 23 75 19 38 35 72 35 75 0 3 -22 5 -49
5 -28 0 -52 4 -55 9 -3 5 33 24 80 42 60 23 95 44 115 67 17 19 28 36 26 38
-12 12 -714 -27 -757 -42 -47 -16 26 25 190 108 411 208 719 302 1022 313 68
3 141 9 163 14 58 13 340 13 431 0z m-1078 -1074 c106 -19 197 -37 202 -40 11
-7 14 -74 4 -99 -4 -11 -19 -16 -44 -16 -21 0 -67 -9 -102 -20 l-63 -20 -122
22 -123 22 0 91 c0 50 3 95 6 98 4 4 16 4 28 2 12 -3 108 -21 214 -40z m-288
-77 c0 -45 -3 -59 -11 -51 -10 10 -4 113 7 113 2 0 4 -28 4 -62z m680 -54 c58
-9 106 -18 108 -20 2 -1 0 -18 -3 -37 l-7 -35 -57 23 c-31 13 -85 29 -121 36
-36 7 -67 14 -68 15 -2 1 -1 12 3 24 4 13 13 19 23 16 9 -2 64 -12 122 -22z
m451 -19 c142 -26 260 -52 268 -59 18 -19 5 -128 -18 -158 l-18 -21 -227 41
c-199 36 -233 45 -275 72 l-48 31 10 57 c10 59 21 82 41 82 7 0 127 -20 267
-45z m-662 -60 c-11 -11 -25 -13 -59 -6 l-45 8 40 7 c66 12 70 12 74 9 3 -2
-2 -10 -10 -18z m-337 5 c29 -6 64 -13 76 -16 l24 -5 -29 -21 c-15 -12 -51
-43 -79 -70 l-51 -49 -11 57 c-16 79 -15 114 3 114 7 0 38 -5 67 -10z m552
-20 c39 -15 74 -38 102 -66 28 -29 51 -44 67 -44 58 0 200 -150 275 -290 78
-144 97 -286 53 -385 -73 -165 -375 -336 -816 -464 -211 -61 -479 -120 -697
-154 l-87 -14 15 36 c8 19 114 283 236 586 121 302 234 570 251 595 43 63 114
132 168 163 45 26 46 27 121 13 87 -15 131 -4 143 34 7 21 12 22 59 17 28 -3
78 -15 110 -27z m3036 -458 c0 -20 -20 -53 -59 -96 -44 -49 -163 -121 -396
-238 -124 -62 -225 -119 -225 -126 0 -26 30 -21 175 31 179 65 331 110 348
104 29 -9 -208 -225 -400 -362 -52 -37 -84 -68 -88 -83 -3 -13 -4 -26 -2 -29
3 -2 73 30 156 71 83 42 156 76 162 76 16 0 1 -58 -28 -108 -13 -24 -54 -75
-91 -113 -82 -88 -338 -307 -485 -417 -62 -45 -148 -112 -192 -148 -123 -101
-302 -216 -458 -294 -203 -101 -291 -120 -567 -120 -310 0 -443 35 -639 168
-214 145 -301 234 -372 377 -59 121 -80 215 -82 373 l-2 134 105 37 c137 49
238 93 327 142 72 39 73 39 135 29 215 -35 471 7 688 111 123 59 207 117 306
211 l71 68 38 -55 c26 -37 44 -54 54 -50 31 9 157 33 211 40 30 4 244 54 475
112 354 88 724 166 813 172 15 1 22 -5 22 -17z"/>
<path d="M1890 3690 c0 -9 23 -15 119 -28 l54 -7 17 -53 c31 -94 95 -142 190
-142 78 0 137 35 171 101 l18 36 58 -8 c32 -5 73 -11 91 -14 25 -5 32 -2 32
10 0 8 -3 15 -7 15 -9 0 -149 23 -248 39 -83 14 -448 61 -474 61 -12 0 -21 -4
-21 -10z"/>
</g>
</svg>
